THE WOLFMAN 2010 UNRATED DVDRIP XVID

Format                           : AVI
Format/Info                      : Audio Video Interleave
File size                        : 604 MiB
Duration                         : 1h 59mn
Overall bit rate                 : 354 Kbps
Writing application              : MEncoder SVN-r29352(20090610-gcc4.3.3)
Writing library                  : MPlayer

Video
ID                               : 0
Format                           : MPEG-4 Visual
Format profile                   : AdvancedSimple@L5
Format settings, BVOP            : Yes
Format settings, QPel            : No
Format settings, GMC             : No warppoints
Format settings, Matrix          : Default (H.263)
Codec ID                         : XVID
Codec ID/Hint                    : XviD
Duration                         : 1h 59mn
Bit rate                         : 599 Kbps
Width                            : 640 pixels
Height                           : 360 pixels
Display aspect ratio             : 16:9
Frame rate                       : 25.000 fps
Resolution                       : 24 bits
Colorimetry                      : 4:2:0
Scan type                        : Progressive
Bits/(Pixel*Frame)               : 0.104
Stream size                      : 511 MiB (85%)
Writing library                  : XviD 1.2.1 (UTC 2008-12-04)

Audio
ID                               : 1
Format                           : MPEG Audio
Format version                   : Version 2
Format profile                   : Layer 3
Codec ID                         : 55
Codec ID/Hint                    : MP3
Duration                         : 1h 59mn
Bit rate mode                    : Constant
Bit rate                         : 96.0 Kbps
Channel(s)                       : 2 channels
Sampling rate                    : 22.05 KHz
Resolution                       : 16 bits
Video delay                      : 80ms
Stream size                      : 81.8 MiB (14%)
Alignment                        : Aligned on interleaves
Interleave, duration             : 26 ms (0.65 video frame)
Interleave, preload duration     : 522 ms
Writing library                  : LAME3.98

The film starts off with the original rhyme as told by Maleva (Chaplin). It then cuts to Ben Talbot, in the Blackmoor woods armed with a pistol. He is confronted by a werewolf which severely injures him. He flees towards a nearby mausoleum, with the creature in pursuit.

Traveling Shakespearean theatre actor Lawrence Talbot (del Toro) returns to his ancestral home to investigate the whereabouts of his recently missing brother upon request from Ben's fiancée Gwen Conliffe (Blunt). His distant and eccentric father Sir John Talbot (Hopkins) greets him and reveals that his brother Ben's body was already found in a ditch and surmises he will attend the funeral. Lawrence inquires about the body and goes to see it, where it is stored at the local mortuary: Ben's remains are thoroughly mangled and torn apart.

While investigating his brother's death, Lawrence heads to the nearby gypsy camp, to which Ben was the town's liaison. While there, an unnamed werewolf suddenly rampages through the camp, killing and maiming most of the gypsies. Lawrence gives chase, and is subsequently attacked by the werewolf and bitten on the neck, though the pursuing gypsies manage to scare it off. Lawrence is tended to and taken to his father. 
 
http://www.imdb.com/title/tt0780653/

PLEASE SEED AND ENJOY THANKS

SCREEN SHOTS
 
http://img30.imageshack.us/img30/525/wolfmanxvidviceavithumb.jpg

My Other Torrents
 
http://thepiratebay.org/user/vicerock/